<svg width="25" height="25" viewBox="0 0 25 25" fill="none" xmlns="http://www.w3.org/2000/svg">
<path d="M12.5 16.9434L11.7929 17.6505L12.5 18.3576L13.2071 17.6505L12.5 16.9434ZM13.5 4.94336C13.5 4.39107 13.0523 3.94336 12.5 3.94336C11.9477 3.94336 11.5 4.39107 11.5 4.94336L12.5 4.94336L13.5 4.94336ZM6.5 10.9434L5.79289 11.6505L11.7929 17.6505L12.5 16.9434L13.2071 16.2363L7.20711 10.2363L6.5 10.9434ZM12.5 16.9434L13.2071 17.6505L19.2071 11.6505L18.5 10.9434L17.7929 10.2363L11.7929 16.2363L12.5 16.9434ZM12.5 16.9434L13.5 16.9434L13.5 4.94336L12.5 4.94336L11.5 4.94336L11.5 16.9434L12.5 16.9434Z" fill="#FAA95E"/>
<path d="M5.5 21.9434L19.5 21.9434" stroke="#FAA95E" stroke-width="2"/>
</svg>
