<svg width="266" height="99" viewBox="0 0 266 99" fill="none" xmlns="http://www.w3.org/2000/svg">
<g clip-path="url(#clip0_1_74470)">
<path d="M1.78125 64.7644H1.86865C2.84099 64.7644 3.81331 64.7644 4.79657 64.7644H4.69825C3.72956 64.7426 2.75723 64.7426 1.78125 64.7644Z" fill="white"/>
<path d="M0 62.992C0 61.0146 0 59.0481 0 57.0706V56.9941C0.0327753 59.0044 0.0218502 61.0037 0 62.992Z" fill="white"/>
<path d="M29.9027 58.0517C27.3243 44.9415 15.2412 34.4534 2.05457 33.8635C0.623379 33.8088 0.0334213 33.9946 0.0552715 35.6661V36.6494C0.120822 35.3493 0.699853 35.1854 1.96716 35.2509C14.5638 35.8081 26.1117 45.7828 28.5698 58.3576C28.8866 59.9963 28.9413 61.7006 29.2035 63.3503C29.3673 64.4428 29.0614 64.705 28.2311 64.7597H29.1816C30.3287 64.7597 30.7657 64.5084 30.5691 63.2848C30.2304 61.5477 30.1867 59.7778 29.9027 58.0517Z" fill="white"/>
<path d="M22.9062 64.748H25.419C25.5535 64.7594 25.6887 64.7594 25.8233 64.748H22.9062Z" fill="white"/>
<path d="M0.015625 38.9717C0.015625 39.0919 0.015625 39.223 0.015625 39.365C0.0738922 45.25 0.0738922 51.135 0.015625 57.02V56.4737C0.0593254 50.6397 0.0593254 44.8057 0.015625 38.9717Z" fill="white"/>
<path d="M1.39378 64.7508C0.486998 64.7508 0.093688 64.4012 0.0390625 63.3633C0.0441388 63.3051 0.0441388 63.2466 0.0390625 63.1885C0.0390625 64.4776 0.443291 64.7398 1.55765 64.7289L1.39378 64.7508Z" fill="white"/>
<path d="M0.0390625 56.4726C0.0390625 50.5949 0.0390625 44.7245 0.0390625 38.8613C0.0390625 38.8613 0.0390625 38.9269 0.0390625 38.9706C0.0609127 44.8046 0.0609127 50.6386 0.0390625 56.4726Z" fill="white"/>
<path d="M0.015625 63.3633C0.0702505 64.4012 0.46356 64.7071 1.37034 64.7508C0.474485 64.6961 0.0811756 64.3902 0.015625 63.3633Z" fill="white"/>
<path d="M15.0933 50.1374C15.0933 49.8424 14.8966 49.7987 14.7109 49.9844C14.3041 50.4352 13.9385 50.9215 13.6184 51.4374C13.52 51.5904 13.3015 51.7215 13.3999 51.94C13.4982 52.1585 13.7385 52.093 13.9243 52.093C15.3227 52.093 15.0933 52.093 15.1042 51.0004C15.0933 50.6836 15.1151 50.4105 15.0933 50.1374Z" fill="white"/>
<path d="M3.38678 61.8664C3.38678 62.0739 3.26659 62.3689 3.61619 62.4782C4.45743 62.7404 4.88351 62.4782 4.86166 61.6369C4.86166 61.4403 4.86166 61.2436 4.86166 61.0579C4.86532 61.0021 4.84847 60.9468 4.81426 60.9026C4.78006 60.8583 4.73087 60.8281 4.67593 60.8175C4.3202 60.7067 3.93915 60.7067 3.58342 60.8175C3.14642 61.0251 3.43048 61.5058 3.38678 61.8664Z" fill="white"/>
<path d="M0.015625 63.3652C0.0811756 64.3921 0.474485 64.698 1.37034 64.7527H1.62162C2.64858 64.7527 3.66461 64.7527 4.69157 64.7527H9.62972C9.48769 64.6871 9.46584 64.5342 9.45492 64.1736C9.44399 63.8131 9.45492 63.5072 9.45492 63.1685C9.45492 60.8852 9.45492 58.6018 9.45492 56.3185C9.41382 55.7064 9.61379 55.1026 10.0121 54.636C11.1629 53.274 12.2809 51.8865 13.3661 50.4735C13.9901 49.5861 14.6611 48.7328 15.3763 47.9171C15.4583 47.8009 15.5279 47.6764 15.5839 47.5456C15.6798 47.6762 15.7485 47.8247 15.786 47.9823C15.8236 48.14 15.8291 48.3035 15.8024 48.4633C15.8024 53.62 15.8024 58.7766 15.8024 63.9333V64.261C15.8024 64.5451 15.7478 64.698 15.5511 64.7636H16.7201C16.6109 64.6871 16.5999 64.5342 16.5999 64.1845C16.5999 62.4256 16.5999 60.6776 16.5999 58.9187C16.5999 58.4926 16.742 58.3287 17.179 58.3396C18.0748 58.3396 18.9598 58.3396 19.8556 58.3396C20.7515 58.3396 21.6473 58.3396 22.5323 58.3396C22.9802 58.3396 23.1113 58.5035 23.1113 58.9296C23.1113 60.6885 23.1113 62.4365 23.1113 64.1955C23.1113 64.5232 23.1113 64.6762 22.9693 64.7527H25.9409C26.5745 64.6653 26.804 64.3484 26.662 63.4853C26.4216 61.9777 26.3779 60.4263 26.0829 58.9296C23.8324 47.4364 13.2896 38.3357 1.78549 37.8223C0.692976 37.8223 0.168569 37.8878 0.0593181 38.9148C0.103018 44.7852 0.103018 50.6556 0.0593181 56.5261V57.1488C0.0593181 59.1371 0.0593181 61.1146 0.0593181 63.103V63.245C0.0473169 63.2859 0.0327279 63.3261 0.015625 63.3652ZM17.1025 56.2857C18.9161 56.2857 20.7187 56.2857 22.565 56.2857C22.9583 56.2857 23.1331 56.4277 23.1113 56.821C23.1004 56.9884 23.1004 57.1562 23.1113 57.3236C23.1113 57.6841 22.9256 57.8043 22.5869 57.8043H19.9102C18.9925 57.8043 18.0748 57.8043 17.1571 57.8043C16.7529 57.8043 16.589 57.6513 16.6218 57.258C16.6327 57.1199 16.6327 56.981 16.6218 56.8429C16.5562 56.4714 16.6764 56.2857 17.1025 56.2857ZM2.3536 44.2681C2.3536 43.9294 2.47378 43.7655 2.8343 43.7655C4.62602 43.7655 6.40681 43.7655 8.1876 43.7655C8.4935 43.7655 8.66831 43.8748 8.66831 44.2025V44.7816C8.66831 51.0854 8.66831 57.3891 8.66831 63.682C8.66831 64.8401 8.72293 64.7199 7.63042 64.7199H3.36964C2.27713 64.7199 2.3536 64.8073 2.3536 63.6274V44.9127C2.3536 44.6942 2.36452 44.4647 2.3536 44.2135V44.2681Z" fill="white"/>
<path d="M14.3407 52.7549H13.7508C13.0625 52.7549 13.0625 52.7549 13.0625 53.4541C13.0625 54.1533 13.0625 54.0987 13.6962 54.1205H14.7887C14.8581 54.1227 14.9263 54.1012 14.9819 54.0595C15.0375 54.0178 15.0772 53.9584 15.0946 53.8911C15.324 53.181 15.0509 52.7658 14.3407 52.7549Z" fill="white"/>
<path d="M13.795 56.2317H14.7128C14.8876 56.2317 15.0624 56.1771 15.0842 55.9805C15.2041 55.6262 15.2041 55.2422 15.0842 54.8879C14.9313 54.6148 14.5707 54.7678 14.3085 54.7459C14.0463 54.7241 13.9698 54.7459 13.806 54.7459C13.1177 54.7459 13.1177 54.7459 13.1177 55.4451C13.1177 56.1443 13.074 56.2317 13.795 56.2317Z" fill="white"/>
<path d="M11.0937 58.3496H11.924C12.2845 58.3496 12.4375 58.2076 12.4157 57.858C12.4047 57.7198 12.4047 57.581 12.4157 57.4428C12.4157 57.1041 12.3173 56.9075 11.9459 56.9184C11.5744 56.9293 11.1156 56.9184 10.7004 56.9184C10.2853 56.9184 10.2743 57.0714 10.2416 57.3773C10.1651 58.2403 10.2416 58.3387 11.0937 58.3496Z" fill="white"/>
<path d="M11.0741 60.3852H11.7405C12.3742 60.3852 12.396 60.3852 12.4069 59.7297C12.4069 59.5877 12.4069 59.4566 12.4069 59.3146C12.4106 59.2658 12.4034 59.2168 12.3857 59.1712C12.368 59.1256 12.3404 59.0845 12.3048 59.051C12.2691 59.0175 12.2265 58.9923 12.1799 58.9775C12.1333 58.9626 12.0839 58.9583 12.0355 58.965H10.6261C10.544 58.9552 10.4613 58.9767 10.3944 59.0253C10.3276 59.074 10.2816 59.1461 10.2656 59.2272C10.0253 60.0138 10.2875 60.3743 11.0741 60.3852Z" fill="white"/>
<path d="M21.9374 58.9759H20.5171C20.4326 58.9686 20.3483 58.9923 20.28 59.0426C20.2117 59.0928 20.1639 59.1662 20.1457 59.249C19.9163 60.0684 20.1457 60.4399 21.0306 60.4508H21.7845C22.1668 60.4508 22.3635 60.2978 22.3307 59.9045C22.3307 59.7407 22.3307 59.5659 22.3307 59.402C22.3307 59.2381 22.2542 58.9759 21.9374 58.9759Z" fill="white"/>
<path d="M18.6571 58.9746H17.7503C17.6082 58.9746 17.4553 58.9746 17.4225 59.1713C17.3175 59.5279 17.3175 59.9072 17.4225 60.2638C17.5536 60.6025 17.9032 60.4495 18.1654 60.4714C18.3872 60.4877 18.61 60.4877 18.8318 60.4714C19.4109 60.4714 19.4327 60.4714 19.4546 59.8377C19.4983 58.9855 19.4874 58.9746 18.6571 58.9746Z" fill="white"/>
<path d="M18.8249 61.0845C18.5484 61.0682 18.2712 61.0682 17.9946 61.0845C17.4156 61.0845 17.4047 61.0845 17.3828 61.7073C17.3828 62.4611 17.3828 62.4939 18.1585 62.5048H18.7375C19.4586 62.5048 19.4804 62.5048 19.4695 61.7619C19.4586 61.019 19.4477 61.1064 18.8249 61.0845Z" fill="white"/>
<path d="M20.8935 62.5116H21.4725C22.3465 62.5116 22.3574 62.5116 22.3356 61.6376C22.3356 61.1897 22.128 61.0586 21.7238 61.0804C21.3196 61.1023 21.0574 61.0804 20.7296 61.0804C20.1724 61.0804 20.1396 61.135 20.1287 61.7031C20.0632 62.4679 20.1287 62.5007 20.8935 62.5116Z" fill="white"/>
<path d="M11.0201 62.5149H11.5991C12.4185 62.5149 12.4294 62.5149 12.4076 61.6737C12.4076 61.0837 12.4075 61.0619 11.7957 61.04C11.4898 61.04 11.1839 61.04 10.889 61.04C10.2881 61.04 10.2553 61.1056 10.2444 61.7283C10.2334 62.3511 10.2335 62.504 11.0201 62.5149Z" fill="white"/>
<path d="M14.1769 58.9492H14.1004C13.0625 58.9492 13.0625 58.9492 13.0625 59.6484C13.0625 60.3476 13.0625 60.3695 13.8163 60.3804C14.1222 60.3804 14.4281 60.3804 14.734 60.3804C15.0399 60.3804 15.0727 60.2602 15.1055 60.0199C15.2475 59.124 15.1055 58.9492 14.1769 58.9492Z" fill="white"/>
<path d="M12.4124 54.968V54.8042C12.4124 54.4764 12.4124 54.1377 12.4124 53.81C12.4124 53.6679 12.4124 53.5041 12.2595 53.4604C12.1065 53.4167 11.9972 53.5369 11.9098 53.6461C11.4401 54.2361 10.9703 54.8151 10.5114 55.405C10.4075 55.5346 10.3296 55.683 10.282 55.842C10.2647 55.8804 10.2565 55.9223 10.258 55.9644C10.2595 56.0065 10.2708 56.0477 10.2909 56.0847C10.311 56.1218 10.3394 56.1537 10.3739 56.1779C10.4083 56.2021 10.4479 56.218 10.4896 56.2244C11.0512 56.3767 11.6432 56.3767 12.2048 56.2244C12.6309 55.9841 12.3359 55.3832 12.4124 54.968Z" fill="white"/>
<path d="M13.8298 62.5171H14.0811C15.1736 62.5171 15.1736 62.4188 15.119 61.4792C15.1193 61.418 15.1067 61.3573 15.0821 61.3013C15.0574 61.2452 15.0213 61.1949 14.976 61.1537C14.9306 61.1125 14.8771 61.0813 14.819 61.0621C14.7608 61.0429 14.6992 61.0361 14.6383 61.0422C14.3324 61.0422 14.0265 61.0422 13.7206 61.0422C13.1088 61.0422 13.076 61.0422 13.0651 61.7305C13.0541 62.4188 13.0432 62.5062 13.8298 62.5171Z" fill="white"/>
<path d="M13.882 58.352H14.0459C15.1384 58.352 15.1384 58.352 15.1384 57.6746C15.1384 56.9973 15.1384 56.9317 14.3955 56.9208H13.4778C13.3959 56.9102 13.3129 56.9298 13.2445 56.9761C13.1761 57.0224 13.1269 57.0921 13.1063 57.172C12.8441 57.9696 13.1063 58.341 13.882 58.352Z" fill="white"/>
<path d="M6.0763 47.286C6.0763 47.5482 6.0763 47.7449 6.0763 47.9306C6.0763 48.1163 6.13092 48.2256 6.2948 48.2365C6.69903 48.2365 7.15788 48.4004 7.50748 48.1491C7.85709 47.8979 7.60581 47.581 7.62766 47.286C7.64385 47.1481 7.64385 47.0088 7.62766 46.8709C7.62766 46.8053 7.62766 46.6961 7.50748 46.6742C7.113 46.5487 6.68928 46.5487 6.2948 46.6742C5.92334 46.7289 6.12 47.1112 6.0763 47.286Z" fill="white"/>
<path d="M6.06975 61.5731C6.06975 62.5236 6.06976 62.5236 6.96561 62.5018C7.62112 62.5018 7.62112 62.5017 7.63205 61.8572C7.63205 61.6059 7.63205 61.3546 7.63205 61.1033C7.63205 60.8521 7.57742 60.8521 7.4791 60.8302C7.07614 60.7115 6.64751 60.7115 6.24455 60.8302C5.92773 60.9613 6.11345 61.3437 6.06975 61.5731Z" fill="white"/>
<path d="M3.375 54.3655C3.375 55.3378 3.37501 55.3488 4.06329 55.3597C4.75157 55.3706 4.88266 55.3597 4.89359 54.5512C4.89359 54.3546 4.89359 54.1579 4.89359 53.9613C4.89359 53.7646 4.89358 53.7209 4.75156 53.6882C4.37694 53.5792 3.97904 53.5792 3.60442 53.6882C3.24389 53.7756 3.44055 54.147 3.375 54.3655Z" fill="white"/>
<path d="M3.56536 48.2238C3.9232 48.3198 4.30002 48.3198 4.65787 48.2238C4.96377 48.1036 4.79991 47.7321 4.84361 47.5027C4.84361 46.5959 4.84359 46.5959 3.99143 46.6178C3.35778 46.6178 3.35779 46.6178 3.33594 47.2514V47.907C3.39056 48.0271 3.4124 48.191 3.56536 48.2238Z" fill="white"/>
<path d="M3.58258 51.7953C3.9555 51.9156 4.3568 51.9156 4.72972 51.7953C5.0247 51.6533 4.84989 51.2928 4.89359 51.0633C4.89359 50.1456 4.89358 50.1456 4.15067 50.1347C3.40777 50.1238 3.38593 50.1347 3.375 50.9213C3.375 51.1179 3.375 51.3146 3.375 51.5003C3.375 51.6861 3.42963 51.7625 3.58258 51.7953Z" fill="white"/>
<path d="M7.63572 51.051C7.63572 50.1114 7.63572 50.1114 6.88188 50.1005C6.12805 50.0896 6.0625 50.1005 6.0625 50.9199C6.0625 51.1165 6.0625 51.3132 6.0625 51.5098C6.0625 51.7065 6.06252 51.7502 6.21547 51.772C6.61284 51.9029 7.0417 51.9029 7.43907 51.772C7.7559 51.6518 7.59202 51.2804 7.63572 51.051Z" fill="white"/>
<path d="M6.89642 58.9293C7.6284 58.9293 7.63933 58.9293 7.6284 58.0771C7.61748 57.225 7.62841 57.2468 6.7981 57.2578C5.96779 57.2687 6.0661 57.2578 6.0661 58.099C6.0661 58.9402 6.09889 58.9402 6.89642 58.9293Z" fill="white"/>
<path d="M6.83138 53.6339C6.06662 53.6339 6.06661 53.6339 6.06661 54.508C6.06113 54.5916 6.06113 54.6756 6.06661 54.7592C6.06661 55.3273 6.06661 55.3383 6.70027 55.3601H7.19191C7.51966 55.3601 7.63983 55.1853 7.62891 54.8903V54.4752C7.63983 53.623 7.63984 53.623 6.83138 53.6339Z" fill="white"/>
<path d="M4.87667 57.5518C4.87043 57.4822 4.84134 57.4165 4.79392 57.3652C4.74649 57.3138 4.6834 57.2795 4.61448 57.2677C3.76232 57.0165 3.37993 57.2677 3.39085 58.1745V58.5897C3.39085 58.7099 3.39085 58.841 3.5438 58.8737C3.89953 58.9846 4.28059 58.9846 4.63631 58.8737C4.97499 58.7536 4.8002 58.393 4.83297 58.2619C4.87667 57.9342 4.88759 57.7375 4.87667 57.5518Z" fill="white"/>
<path d="M28.9162 68.6826H1.8438C1.48741 68.6826 1.1456 68.8242 0.893588 69.0762C0.641579 69.3282 0.5 69.67 0.5 70.0264V97.2627C0.5 97.6191 0.641579 97.9609 0.893588 98.2129C1.1456 98.4649 1.48741 98.6065 1.8438 98.6065H6.85842L10.9007 93.9852L12.8235 91.8001H6.85842L10.9007 87.1788L12.8235 84.9938H6.85842L10.9007 80.3834L14.9539 75.7621L18.9962 80.3834L23.0494 84.9938H17.0843L18.9962 87.1788L23.0494 91.8001H17.0843L18.9962 93.9852L23.0494 98.6065H28.9162C29.2726 98.6065 29.6144 98.4649 29.8664 98.2129C30.1184 97.9609 30.26 97.6191 30.26 97.2627V70.0264C30.26 69.67 30.1184 69.3282 29.8664 69.0762C29.6144 68.8242 29.2726 68.6826 28.9162 68.6826Z" fill="white"/>
<path d="M33.586 19.9827C33.7153 20.0016 33.8329 20.068 33.9158 20.1691C33.9986 20.2701 34.0408 20.3985 34.0339 20.5289C34.0339 21.3374 34.0339 22.1568 34.0339 22.9652C35.4274 23.0526 36.7882 23.4244 38.0325 24.0577C38.404 23.4241 38.7645 22.7904 39.1251 22.1568C39.1764 22.0262 39.2627 21.9123 39.3745 21.8276C39.4862 21.7428 39.6192 21.6904 39.7587 21.6761C39.8828 21.6668 40.0056 21.706 40.1014 21.7855C40.1972 21.865 40.2584 21.9785 40.2722 22.1021C40.3054 22.3078 40.2709 22.5187 40.1739 22.703C39.8931 23.3993 39.5494 24.0685 39.1469 24.7023C40.2826 25.4557 41.2559 26.429 42.0093 27.5647C42.6757 27.1714 43.3531 26.7781 44.0413 26.4722C44.7296 26.1663 45.0465 26.4722 45.0574 26.9201C45.0632 27.0419 45.0333 27.1627 44.9711 27.2676C44.909 27.3724 44.8174 27.4568 44.7078 27.5101L42.632 28.7009C42.9871 29.4137 43.2584 30.1653 43.4405 30.9406H48.3786C52.9344 30.9406 57.4901 30.9406 62.0459 30.9406C63.1384 30.9406 63.5973 30.6893 63.4006 29.5094C63.1275 27.8269 63.0729 26.1117 62.7451 24.4401C61.3571 18.1086 57.9492 12.3995 53.0349 8.17285C48.1206 3.9462 41.9659 1.43088 35.4979 1.00576C34.0886 0.940212 33.5205 1.13687 33.5314 2.75379C33.5897 8.47854 33.6079 14.2215 33.586 19.9827Z" fill="white"/>
<path d="M61.6994 34.8287C55.6468 34.887 49.5943 34.887 43.5418 34.8287C43.373 35.8139 43.0562 36.7678 42.6023 37.6583L44.689 38.8382C44.8009 38.8906 44.8955 38.9741 44.9613 39.0787C45.0272 39.1832 45.0616 39.3046 45.0604 39.4282C45.0503 39.5234 45.0176 39.6147 44.965 39.6947C44.9124 39.7747 44.8415 39.841 44.7581 39.888C44.6748 39.935 44.5814 39.9614 44.4857 39.9651C44.3901 39.9687 44.295 39.9494 44.2083 39.9089C43.4544 39.5374 42.7224 39.1441 42.0232 38.7399C41.2674 39.867 40.2988 40.8356 39.1718 41.5914C39.645 42.3392 40.0404 43.1336 40.3517 43.9621C40.3517 44.2899 40.2752 44.5302 40.013 44.6176C39.902 44.674 39.7738 44.6862 39.6541 44.6518C39.5345 44.6173 39.4324 44.5387 39.3684 44.4319C38.9314 43.6999 38.5054 42.957 38.0793 42.2469C36.8359 42.8925 35.4688 43.265 34.0698 43.3394C34.0698 44.1151 34.0698 44.9017 34.0698 45.6773C34.0698 46.0051 33.9496 46.311 33.5781 46.3329C33.5781 47.4254 33.5781 48.5834 33.5781 49.6978C33.5781 54.2536 33.5781 58.8202 33.5781 63.376C33.5781 64.4685 33.8294 64.9164 35.0093 64.7307C36.6918 64.4467 38.407 64.403 40.0786 64.0752C46.4195 62.6823 52.1351 59.2643 56.3626 54.3372C60.59 49.4101 63.0998 43.2414 63.5129 36.7625C63.502 35.3859 63.3163 34.8069 61.6994 34.8287Z" fill="white"/>
<path d="M2.19842 26.3108C0.417624 26.4746 0.417635 26.4746 0.417635 28.3101V28.6815C0.444926 29.0196 0.444926 29.3594 0.417635 29.6976C0.286534 30.6262 0.625214 31.0413 1.59755 30.7901C1.8379 30.7901 2.10009 30.7901 2.35137 30.7901C9.40031 29.9996 15.9785 26.861 21.0276 21.8792C26.0768 16.8974 29.3035 10.362 30.1885 3.32435C30.4726 1.00822 30.4726 1.00822 28.1018 1.00822C27.7635 1.03006 27.4241 1.03006 27.0858 1.00822C26.2883 0.89897 25.9168 1.11747 25.8403 2.03518C25.7194 3.3765 25.4929 4.7062 25.163 6.01192C22.5082 16.7731 12.8067 25.3494 2.19842 26.3108Z" fill="white"/>
<path d="M2.43113 23.46C12.5259 22.2145 21.4517 13.4198 22.9157 3.35781C23.2544 0.965209 23.2544 1.03076 20.8181 0.943359C19.7256 0.943359 19.2558 1.18371 19.0701 2.37455C18.4572 6.65059 16.4963 10.6196 13.4724 13.7045C10.4485 16.7893 6.5193 18.829 2.25632 19.527C0.737732 19.7892 0.0713028 20.1825 0.431831 21.5153C0.399056 24.2575 0.300732 23.755 2.43113 23.46Z" fill="white"/>
<path d="M1.84532 17.0482C5.48094 16.4984 8.85063 14.8162 11.475 12.2408C14.0994 9.66549 15.8449 6.32813 16.4631 2.70352C16.7144 1.01013 16.7144 1.05383 14.9773 0.988281C14.1688 0.988281 13.8848 1.16308 13.7209 2.00432C13.281 5.05634 11.878 7.88816 9.71638 10.0872C7.55472 12.2861 4.74733 13.7374 1.70329 14.2295C0.610775 14.4152 0.130085 14.6993 0.403213 15.6498C0.414138 17.5944 0.315803 17.2448 1.84532 17.0482Z" fill="white"/>
<path d="M7.48884 8.34893C9.13857 6.99311 10.351 5.18015 10.9739 3.13766C11.1598 2.45328 11.2625 1.74899 11.2798 1.04004H0.398438V12.0307C3.07163 11.4789 5.54267 10.2056 7.54345 8.34893H7.48884Z" fill="white"/>
</g>
<g clip-path="url(#clip1_1_74470)">
<path d="M90.8307 33.6951H90.9109C92.5369 34.9181 94.505 35.6012 96.539 35.6485H97.3329C99.6759 35.5825 101.92 34.6882 103.666 33.1243C104.703 32.2145 105.539 31.0978 106.12 29.846C106.7 28.5941 107.013 27.2347 107.037 25.855V25.2307C106.993 23.0739 106.244 20.9907 104.905 19.2993C103.955 18.0785 102.737 17.0928 101.345 16.4185C99.9533 15.7441 98.4247 15.3992 96.878 15.4104C94.7223 15.4205 92.6259 16.1172 90.8931 17.3994H90.8128V15.4104H86.7812V47.8234H90.8128L90.8307 33.6951ZM91.9812 22.0018C92.5442 21.2132 93.2868 20.5697 94.1475 20.1246C95.0082 19.6795 95.9625 19.4456 96.9315 19.442C98.1692 19.4595 99.3738 19.8444 100.392 20.548C101.194 21.0936 101.851 21.8262 102.306 22.6824C102.761 23.5386 103.001 24.4928 103.006 25.4626V25.632C102.976 26.9145 102.559 28.1581 101.81 29.1998C101.268 29.9142 100.574 30.4991 99.778 30.9125C98.9821 31.3259 98.1043 31.5574 97.208 31.5902H96.6728C95.7387 31.5556 94.8243 31.3118 93.997 30.8766C93.0315 30.3458 92.2269 29.5643 91.6681 28.6147C91.1093 27.665 90.8169 26.5822 90.8217 25.4804C90.8478 24.2248 91.2519 23.0063 91.9812 21.984V22.0018Z" fill="white"/>
<path d="M118.8 35.7011H119.335C121.419 35.6586 123.435 34.9594 125.097 33.7032V35.7011H129.12V19.4857H120.548V15.579C120.044 15.4998 119.534 15.4611 119.023 15.4631C116.954 15.4511 114.93 16.0737 113.226 17.2469C111.88 18.1763 110.782 19.4202 110.027 20.8705C109.271 22.3207 108.881 23.9335 108.891 25.5687C108.903 27.775 109.615 29.9204 110.924 31.6963C111.843 32.9226 113.03 33.9215 114.396 34.6159C115.762 35.3102 117.268 35.6815 118.8 35.7011ZM114.073 22.0456C114.629 21.2586 115.366 20.6158 116.22 20.1706C117.075 19.7254 118.024 19.4906 118.988 19.4857C120.074 19.5009 121.14 19.7925 122.083 20.3331C122.993 20.8574 123.75 21.6108 124.279 22.5183C124.808 23.4258 125.09 24.4559 125.097 25.5063V25.7828C125.063 26.9762 124.678 28.133 123.991 29.1097C123.448 29.883 122.731 30.5177 121.898 30.9624C121.064 31.4071 120.137 31.6493 119.193 31.6695H118.934C117.962 31.6615 117.007 31.4166 116.151 30.956C115.179 30.4392 114.364 29.6689 113.794 28.7267C113.224 27.7845 112.92 26.7056 112.913 25.6044C112.927 24.3274 113.332 23.0853 114.073 22.0456Z" fill="white"/>
<path d="M142.42 17.4519C143.794 16.4385 145.401 15.7882 147.093 15.561V15.4629H142.375V17.4519H142.42Z" fill="white"/>
<path d="M125.096 17.4519V15.4629H120.547V15.5788C122.162 15.8371 123.691 16.4794 125.007 17.4519H125.096Z" fill="white"/>
<path d="M131.987 19.4895V35.696H136.019V19.4895H138.338V15.4579H136.019V5.23633H131.987V15.4579H129.133V19.4895H131.987Z" fill="white"/>
<path d="M129.122 19.4855V15.4629H125.099V17.4519H125.046C123.73 16.4794 122.201 15.8371 120.586 15.5788V19.4855H129.122Z" fill="white"/>
<path d="M138.297 19.4855V35.7009H142.328V25.8896C142.282 24.517 142.687 23.167 143.479 22.0454C144.025 21.2593 144.751 20.6152 145.597 20.1668C146.442 19.7184 147.383 19.4787 148.34 19.4677C149.5 19.4406 150.644 19.7504 151.631 20.3596C152.506 20.8893 153.23 21.6353 153.733 22.5257C154.236 23.4161 154.501 24.421 154.503 25.4437V35.6385H158.535V25.3902C158.502 23.2076 157.774 21.0924 156.457 19.3517C155.511 18.1488 154.306 17.1746 152.931 16.5013C151.557 15.8281 150.049 15.4731 148.518 15.4629C148.026 15.4636 147.535 15.4963 147.047 15.561V19.4855H138.297Z" fill="white"/>
<path d="M142.352 5.32227H138.32V15.4547H142.352V5.32227Z" fill="white"/>
<path d="M147.074 19.4855V15.561C145.381 15.7882 143.774 16.4385 142.4 17.4519V15.4629H138.297V19.4855H147.074Z" fill="white"/>
<path d="M168.401 35.7021C169.555 35.7627 170.707 35.5642 171.773 35.1213C172.84 34.6783 173.794 34.002 174.565 33.1422C175.323 33.9908 176.261 34.6606 177.31 35.1032C178.358 35.5459 179.492 35.7504 180.63 35.7021C182.621 35.7716 184.566 35.0904 186.079 33.7933C186.946 32.9684 187.631 31.9723 188.092 30.8682C188.552 29.7642 188.778 28.5764 188.755 27.3803V15.464H184.679V27.2911C184.688 27.8606 184.6 28.4276 184.42 28.968C184.212 29.7894 183.718 30.5098 183.026 31.0001C182.335 31.4904 181.492 31.7186 180.648 31.6438C180.117 31.6835 179.583 31.6094 179.083 31.4263C178.584 31.2433 178.128 30.9556 177.749 30.5824C177.105 29.7547 176.745 28.7411 176.723 27.6925V5.33164L172.656 5.22461H172.468V27.5765C172.448 28.2437 172.299 28.9007 172.031 29.512C171.742 30.2014 171.239 30.7801 170.598 31.1637C169.956 31.5472 169.208 31.7154 168.464 31.6438C167.54 31.6827 166.626 31.4333 165.85 30.9302C165.368 30.4973 164.984 29.9659 164.724 29.3721C164.464 28.7782 164.334 28.1355 164.343 27.4873V15.464H160.32V27.639C160.332 28.8708 160.602 30.0864 161.114 31.2067C161.71 32.621 162.732 33.8141 164.039 34.6199C165.345 35.4257 166.87 35.804 168.401 35.7021Z" fill="white"/>
<path d="M200.488 35.7011H201.023C203.106 35.6586 205.122 34.9594 206.785 33.7032V35.7011H210.816V15.4631H206.785V17.4521H206.731C204.99 16.1592 202.879 15.4617 200.711 15.4631C198.644 15.4512 196.624 16.0739 194.922 17.2469C193.574 18.1748 192.474 19.4181 191.717 20.8686C190.96 22.319 190.569 23.9326 190.578 25.5687C190.59 27.7766 191.305 29.9232 192.621 31.6963C193.537 32.9229 194.723 33.9221 196.087 34.6166C197.451 35.3111 198.957 35.6822 200.488 35.7011ZM195.769 22.0456C196.324 21.2588 197.058 20.6159 197.912 20.1707C198.765 19.7254 199.712 19.4905 200.675 19.4857C201.765 19.4994 202.833 19.7911 203.779 20.3331C204.688 20.8579 205.444 21.6116 205.971 22.5192C206.498 23.4268 206.779 24.4566 206.785 25.5063V25.7828C206.755 26.977 206.37 28.1352 205.679 29.1097C205.137 29.8818 204.421 30.5157 203.589 30.9604C202.757 31.405 201.832 31.6479 200.889 31.6695H200.63C199.656 31.6605 198.698 31.4157 197.839 30.956C196.869 30.4373 196.056 29.6662 195.488 28.7243C194.92 27.7824 194.616 26.7045 194.61 25.6044C194.62 24.3269 195.025 23.0838 195.769 22.0456Z" fill="white"/>
<path d="M228.443 40.0052C228.101 41.1445 227.39 42.1374 226.421 42.8271C225.451 43.5168 224.28 43.864 223.092 43.8138H222.467C221.55 43.8545 220.637 43.6535 219.822 43.2308C219.006 42.8082 218.316 42.1788 217.82 41.4056C217.153 40.2946 216.773 39.0346 216.714 37.7397H212.683C212.725 39.4669 213.148 41.1635 213.923 42.7078C214.443 43.7822 215.167 44.7455 216.054 45.5442C217.775 47.029 219.972 47.8457 222.244 47.8453H223.27C224.669 47.8637 226.054 47.5707 227.325 46.9875C228.596 46.4044 229.721 45.5458 230.62 44.4739C232.057 42.5715 232.862 40.2662 232.921 37.8824V15.4681H228.889V24.3874C228.862 25.4017 228.681 26.4061 228.354 27.3665C227.462 30.2207 225.616 31.6567 222.869 31.6567C221.623 31.7027 220.396 31.3427 219.372 30.631C217.588 29.079 216.697 26.7957 216.697 23.7809V15.4502H212.665V23.7274C212.644 25.6345 212.971 27.5295 213.628 29.3199C215.412 33.5655 218.457 35.6882 222.762 35.6882C224.969 35.7555 227.13 35.0488 228.871 33.6903V37.6416C228.834 38.4449 228.69 39.2397 228.443 40.0052Z" fill="white"/>
<path d="M96.9159 73.2556H97.0408C99.3388 73.252 101.564 72.4514 103.338 70.9901C104.092 70.388 104.75 69.6753 105.291 68.8762L102.053 66.468C101.497 67.3129 100.739 68.0068 99.8492 68.4878C98.959 68.9687 97.9635 69.2217 96.9516 69.2241C95.9197 69.2128 94.9062 68.9494 93.9993 68.457C93.0435 67.9285 92.2471 67.1531 91.6933 66.2117C91.1395 65.2703 90.8485 64.1976 90.8508 63.1054C90.8719 61.9853 91.1789 60.8893 91.7427 59.9212C92.2832 59.0422 93.0363 58.3134 93.9326 57.8022C94.829 57.2909 95.8396 57.0135 96.8713 56.9956C97.8921 56.9764 98.9006 57.2198 99.8002 57.7024C100.7 58.185 101.46 58.8907 102.009 59.7517C102.08 59.7517 103.177 58.949 105.3 57.3435L105.193 57.174C104.261 55.8747 103.033 54.816 101.611 54.0855C100.189 53.3549 98.613 52.9736 97.0141 52.973C94.4797 52.9525 92.0296 53.8817 90.1461 55.5775C89.1023 56.5268 88.2681 57.6835 87.6967 58.9736C87.1254 60.2637 86.8296 61.6588 86.8281 63.0697C86.8281 65.3029 87.5544 67.4755 88.8974 69.2598C89.8349 70.4995 91.0467 71.5053 92.4378 72.1986C93.8289 72.8918 95.3616 73.2536 96.9159 73.2556Z" fill="white"/>
<path d="M108.253 69.671C109.197 70.7974 110.378 71.7013 111.712 72.3181C113.045 72.9349 114.499 73.2492 115.968 73.2387H116.049C118.579 73.2399 121.017 72.2841 122.872 70.5629C123.899 69.6143 124.718 68.464 125.28 67.184C125.842 65.904 126.133 64.5219 126.136 63.1241C126.129 60.4483 125.064 57.8838 123.175 55.9886C122.249 55.049 121.145 54.3026 119.928 53.7928C118.71 53.2829 117.404 53.0197 116.084 53.0185C114.436 52.9966 112.807 53.3805 111.342 54.1364C109.877 54.8924 108.62 55.9971 107.682 57.3533C106.519 59.063 105.898 61.0831 105.898 63.1509C105.899 65.5323 106.732 67.8386 108.253 69.671ZM109.948 63.0617V62.803C109.977 61.7682 110.285 60.7605 110.84 59.8864C111.375 59.0263 112.117 58.3148 113 57.8175C113.882 57.3202 114.875 57.0532 115.888 57.0411C117.041 57.0498 118.172 57.3571 119.17 57.933C120.057 58.4892 120.79 59.2594 121.301 60.1727C121.812 61.086 122.086 62.1132 122.096 63.1598C122.078 64.4223 121.673 65.6488 120.936 66.674C120.377 67.4687 119.634 68.1166 118.771 68.5623C117.907 69.008 116.949 69.2384 115.977 69.2339C114.637 69.2171 113.337 68.7803 112.258 67.9852C111.56 67.4433 110.99 66.7553 110.586 65.9695C110.182 65.1837 109.955 64.3191 109.921 63.4363V63.1331H109.868L109.948 63.0617Z" fill="white"/>
<path d="M156.283 73.2568V61.2157C156.308 59.1536 155.556 57.1576 154.178 55.6233C153.428 54.8043 152.516 54.1499 151.499 53.7016C150.483 53.2533 149.385 53.0207 148.274 53.0188C147.109 52.9984 145.955 53.2339 144.891 53.7085C143.828 54.1832 142.882 54.8856 142.119 55.766C141.363 54.8997 140.429 54.206 139.381 53.7321C138.333 53.2581 137.195 53.0148 136.045 53.0188C134.639 53.0143 133.255 53.3771 132.032 54.0713V53.0188H128V73.2568H132.032V61.0195C132.057 60.4638 132.172 59.9158 132.37 59.3962C132.702 58.7069 133.217 58.1224 133.859 57.7069C134.501 57.2915 135.245 57.0612 136.01 57.0414C136.62 57.0536 137.223 57.1713 137.793 57.3893C138.473 57.7127 139.05 58.2165 139.462 58.8457C139.874 59.4749 140.105 60.2053 140.13 60.9571V73.2212H144.162V61.6082C144.143 60.9171 144.249 60.2283 144.474 59.5746C144.781 58.8262 145.304 58.1859 145.976 57.7349C146.647 57.284 147.438 57.0426 148.247 57.0414C148.665 57.0576 149.081 57.1174 149.487 57.2198C150.325 57.4937 151.052 58.0302 151.562 58.7499C152.071 59.4696 152.335 60.3343 152.314 61.2157V73.2568H156.283Z" fill="white"/>
<path d="M186.462 73.2568V61.2157C186.487 59.1517 185.732 57.1544 184.348 55.6233C183.599 54.8054 182.688 54.1516 181.673 53.7034C180.658 53.2551 179.562 53.022 178.452 53.0188C177.288 52.9984 176.133 53.2339 175.07 53.7085C174.006 54.1832 173.06 54.8856 172.298 55.766C171.541 54.8997 170.607 54.206 169.559 53.7321C168.512 53.2581 167.374 53.0148 166.224 53.0188C164.817 53.0143 163.434 53.3771 162.21 54.0713H162.157V53.0188H158.125V73.2568H162.157V61.0195C162.181 60.4628 162.299 59.9142 162.504 59.3962C162.834 58.7076 163.348 58.1234 163.988 57.7079C164.629 57.2924 165.371 57.0618 166.135 57.0414C166.745 57.0548 167.348 57.1725 167.918 57.3893C168.596 57.7143 169.172 58.2185 169.584 58.8474C169.996 59.4762 170.228 60.2058 170.255 60.9571V73.2212H174.278V61.6082C174.259 60.9171 174.365 60.2283 174.59 59.5746C174.898 58.8262 175.42 58.1859 176.092 57.7349C176.764 57.284 177.554 57.0426 178.363 57.0414C178.784 57.0575 179.203 57.1173 179.612 57.2198C180.449 57.494 181.175 58.0309 181.683 58.7507C182.191 59.4706 182.453 60.3351 182.43 61.2157V73.2568H186.462Z" fill="white"/>
<path d="M188.305 53.0225V59.8904C188.305 65.028 189.663 68.792 192.381 71.1824C193.934 72.4907 195.89 73.2246 197.92 73.2605H198.607C199.299 73.254 199.987 73.1489 200.649 72.9484C202.802 72.4159 204.718 71.1866 206.099 69.452C206.737 68.5953 207.261 67.66 207.66 66.6692C208.266 65.2956 208.552 62.9141 208.552 59.5337V53.0314H204.538V59.8102C204.592 61.2 204.487 62.5915 204.226 63.9576C203.972 65.2462 203.374 66.442 202.495 67.4184C201.399 68.516 199.925 69.154 198.375 69.2022H198.098C197.353 69.1871 196.618 69.0202 195.94 68.7117C193.561 67.35 192.351 64.475 192.309 60.0867V52.9512L188.305 53.0225Z" fill="white"/>
<path d="M227.933 55.9961C226.989 54.9856 225.836 54.1931 224.554 53.674C223.272 53.1548 221.893 52.9215 220.512 52.9903C218.369 52.9469 216.265 53.5702 214.491 54.7742H214.438V52.9903H210.406V73.2283H214.438V63.2386C214.436 62.3453 214.599 61.4593 214.919 60.6253C215.883 58.2468 217.747 57.0575 220.512 57.0575C221.354 57.0118 222.195 57.1474 222.98 57.4552C223.765 57.7629 224.474 58.2357 225.061 58.8414C226.072 60.0408 226.619 61.563 226.604 63.1316V73.2729H230.635V62.98C230.625 61.6451 230.368 60.3237 229.877 59.0822C229.56 58.3659 229.175 57.6818 228.727 57.0397H227.924L227.933 55.9961Z" fill="white"/>
<path d="M232.484 49.5749V49.7533L232.538 50.1547C232.637 50.584 232.879 50.967 233.224 51.2409C233.569 51.5147 233.997 51.6632 234.438 51.6621H234.616H235.009C235.442 51.5523 235.826 51.3 236.1 50.9459C236.373 50.5917 236.52 50.1561 236.516 49.7087L236.462 49.2538C236.378 48.8036 236.138 48.3976 235.784 48.1071C235.43 47.8167 234.985 47.6605 234.527 47.6662L233.938 47.7465C233.528 47.8486 233.164 48.0832 232.901 48.4138C232.638 48.7444 232.491 49.1526 232.484 49.5749Z" fill="white"/>
<path d="M236.516 57.0352H232.484V73.2416H236.516V57.0352Z" fill="white"/>
<path d="M254.476 53.0107H249.758V57.0423H254.476V53.0107Z" fill="white"/>
<path d="M227.938 53.0189V55.998C228.225 56.3211 228.493 56.6607 228.74 57.0148H232.486V52.9922L227.938 53.0189Z" fill="white"/>
<path d="M243.394 53.0068V42.7852H239.362V53.0068H236.508V57.0383H239.362V73.2448H243.394V57.0383H245.713V53.0068H243.394Z" fill="white"/>
<path d="M227.938 57.0402H228.74C228.493 56.686 228.225 56.3466 227.938 56.0234V57.0402Z" fill="white"/>
<path d="M236.516 53.0107H232.484V57.0423H236.516V53.0107Z" fill="white"/>
<path d="M261.919 53.0176V61.9369C261.892 62.9512 261.712 63.9556 261.384 64.916C260.492 67.7702 258.646 69.2063 255.899 69.2063C254.656 69.2535 253.431 68.8933 252.411 68.1805C250.628 66.6285 249.736 64.3452 249.736 61.3304V57.0224H245.704V61.3483C245.683 63.2533 246.012 65.146 246.676 66.9318C248.424 71.1774 251.469 73.3003 255.81 73.3003C258.012 73.365 260.169 72.6618 261.911 71.3112V75.2536C261.879 76.0518 261.747 76.8429 261.518 77.6083C261.175 78.7459 260.462 79.7368 259.493 80.4248C258.524 81.1128 257.354 81.4587 256.167 81.4079H255.542C254.624 81.4493 253.711 81.2496 252.894 80.8287C252.078 80.4078 251.385 79.7803 250.886 79.0086C250.22 77.8939 249.84 76.6314 249.78 75.3339H245.749C245.794 77.0617 246.22 78.7582 246.997 80.302C247.512 81.3777 248.233 82.3416 249.12 83.1383C250.856 84.6324 253.073 85.4495 255.364 85.4395H256.381C257.779 85.4591 259.165 85.1666 260.436 84.5834C261.707 84.0002 262.833 83.1409 263.73 82.068C265.168 80.1656 265.973 77.8603 266.031 75.4766V53.0176H261.919Z" fill="white"/>
<path d="M249.758 53.0107H245.727V57.0423H249.758V53.0107Z" fill="white"/>
<path d="M177.912 85.4609L175.852 90.5093H179.954L177.912 85.4609Z" fill="white"/>
<path d="M87.2891 98.6146H242.272V77.4043H87.2891V98.6146ZM228.768 82.3991H231.444L237.768 90.8012V82.3991H240.551V95.4125H237.875L231.578 87.0461V95.4125H228.768V82.3991ZM210.849 85.4763C211.451 84.4613 212.317 83.6289 213.355 83.0681C214.449 82.4714 215.677 82.1643 216.923 82.1761C218.169 82.1651 219.397 82.4721 220.491 83.0681C221.53 83.6308 222.399 84.4626 223.006 85.4763C223.612 86.508 223.921 87.6872 223.898 88.8835C223.921 90.0854 223.612 91.2704 223.006 92.3086C222.4 93.3275 221.531 94.1652 220.491 94.7346C219.398 95.3347 218.169 95.642 216.923 95.6266C215.677 95.6428 214.448 95.3355 213.355 94.7346C212.316 94.1683 211.447 93.3336 210.84 92.3175C210.232 91.2769 209.923 90.0885 209.948 88.8835C209.928 87.6864 210.24 86.5071 210.849 85.4763ZM202.108 82.3991H205.043V95.4125H202.108V82.3991ZM186.713 82.3991H197.586V84.8877H193.599V95.4125H190.665V84.8877H186.704L186.713 82.3991ZM176.474 82.3991H179.506L185.063 95.4125H181.924L180.898 92.8794H174.868L173.852 95.4125H170.819L176.474 82.3991ZM155.442 82.3991H160.963C162.203 82.3754 163.429 82.6605 164.531 83.2287C165.538 83.7544 166.379 84.5515 166.957 85.5298C167.55 86.5539 167.858 87.7181 167.849 88.9014C167.867 90.0887 167.558 91.2581 166.957 92.2818C166.367 93.2639 165.515 94.0611 164.495 94.583C163.391 95.1456 162.166 95.4303 160.927 95.4125H155.522L155.442 82.3991ZM137.862 82.3991H140.538L146.853 90.8012V82.3991H149.644V95.4125H146.969L140.671 87.0461V95.4125H137.862V82.3991ZM120.71 82.3991H123.644V90.043C123.623 90.4433 123.683 90.8437 123.819 91.2206C123.955 91.5974 124.166 91.9431 124.438 92.2372C124.713 92.512 125.042 92.7261 125.405 92.8659C125.767 93.0057 126.155 93.068 126.543 93.0489C126.921 93.067 127.298 93.0049 127.651 92.8665C128.003 92.7282 128.321 92.5167 128.586 92.2461C129.123 91.6424 129.399 90.85 129.353 90.043V82.3991H132.287V90.043C132.312 91.0733 132.073 92.0929 131.592 93.0043C131.133 93.8342 130.438 94.5082 129.594 94.9398C128.64 95.4084 127.588 95.6409 126.525 95.6176C125.458 95.6389 124.4 95.4066 123.439 94.9398C122.588 94.5094 121.883 93.8358 121.415 93.0043C120.926 92.0951 120.684 91.0745 120.71 90.043V82.3991ZM103.005 85.4763C103.612 84.4626 104.481 83.6308 105.52 83.0681C106.613 82.4691 107.842 82.1619 109.088 82.1761C110.334 82.1651 111.562 82.4721 112.656 83.0681C113.695 83.6308 114.564 84.4626 115.171 85.4763C115.777 86.508 116.086 87.6872 116.063 88.8835C116.086 90.0854 115.777 91.2704 115.171 92.3086C114.564 93.3275 113.696 94.1652 112.656 94.7346C111.563 95.3347 110.334 95.642 109.088 95.6266C107.842 95.6428 106.612 95.3355 105.52 94.7346C104.478 94.1686 103.607 93.334 102.996 92.3175C102.392 91.2753 102.083 90.088 102.104 88.8835C102.088 87.6869 102.4 86.5087 103.005 85.4763ZM89.0284 82.3991H98.3758V84.8341H91.9807V88.0362H97.8496V90.489H91.9807V95.4125H89.0462L89.0284 82.3991Z" fill="white"/>
<path d="M107.087 92.493C107.689 92.8572 108.38 93.0485 109.084 93.046C109.782 93.0516 110.468 92.8633 111.065 92.5019C111.665 92.1339 112.157 91.6139 112.492 90.9945C112.851 90.3484 113.035 89.6198 113.027 88.8806C113.033 88.1531 112.848 87.4367 112.492 86.8024C112.156 86.1858 111.664 85.6688 111.065 85.304C110.468 84.9426 109.782 84.7542 109.084 84.7599C108.378 84.7539 107.684 84.9421 107.078 85.304C106.461 85.6619 105.953 86.1796 105.606 86.8024C105.249 87.4367 105.065 88.1531 105.071 88.8806C105.06 89.6184 105.248 90.3455 105.615 90.9856C105.969 91.6054 106.475 92.1243 107.087 92.493Z" fill="white"/>
<path d="M162.993 92.4265C163.565 92.0885 164.032 91.5973 164.34 91.0083C164.669 90.3659 164.835 89.6519 164.821 88.9301C164.833 88.1967 164.658 87.4723 164.313 86.8251C163.986 86.2278 163.502 85.7313 162.913 85.3891C162.307 85.0374 161.616 84.8584 160.915 84.8718H158.391V92.8992H161.066C161.739 92.9163 162.404 92.7531 162.993 92.4265Z" fill="white"/>
<path d="M214.954 92.4931C215.556 92.8565 216.247 93.0477 216.951 93.0461C217.649 93.0541 218.336 92.8656 218.932 92.502C219.532 92.134 220.024 91.614 220.359 90.9946C220.718 90.3485 220.902 89.6199 220.894 88.8808C220.9 88.1532 220.715 87.4368 220.359 86.8025C220.023 86.1859 219.531 85.6689 218.932 85.3041C218.336 84.9405 217.649 84.752 216.951 84.76C216.245 84.7554 215.552 84.9435 214.945 85.3041C214.332 85.6647 213.828 86.1819 213.482 86.8025C213.118 87.4343 212.93 88.1519 212.938 88.8808C212.93 89.6193 213.121 90.3463 213.491 90.9857C213.841 91.6051 214.345 92.1242 214.954 92.4931Z" fill="white"/>
</g>
<defs>
<clipPath id="clip0_1_74470">
<rect width="63.4639" height="97.6704" fill="white" transform="translate(0 0.943359)"/>
</clipPath>
<clipPath id="clip1_1_74470">
<rect width="179.146" height="93.3769" fill="white" transform="translate(86.8125 5.23633)"/>
</clipPath>
</defs>
</svg>
