<svg width="31" height="33" viewBox="0 0 31 33" fill="none" xmlns="http://www.w3.org/2000/svg">
<path d="M7.25149 4.54004C5.34615 4.54004 3.78125 6.1629 3.78125 8.1388V24.4968C3.78125 26.4727 5.34615 28.0956 7.25149 28.0956H23.0253C24.9306 28.0956 26.4955 26.4727 26.4955 24.4968V8.1388C26.4955 6.1629 24.9306 4.54004 23.0253 4.54004H7.25149ZM7.25149 6.503H23.0253C23.9075 6.503 24.6027 7.22392 24.6027 8.1388V24.4968C24.6027 25.4117 23.9075 26.1326 23.0253 26.1326H18.9241V19.5894H21.2113C21.5293 19.5894 21.7982 19.3428 21.8373 19.0156L22.0739 17.0526C22.0967 16.8668 22.0398 16.6802 21.9199 16.5389C21.8006 16.3982 21.629 16.3178 21.4479 16.3178H18.9241V14.0277C18.9241 13.306 19.4901 12.7191 20.186 12.7191H21.4479C21.7962 12.7191 22.0789 12.4266 22.0789 12.0647V9.8564C22.0789 9.51746 21.8295 9.23473 21.5046 9.20463C21.4674 9.20136 20.5772 9.12029 19.4503 9.12029C16.6697 9.12029 15.1384 10.8321 15.1384 13.9408V16.3178H12.6146C12.2663 16.3178 11.9836 16.6103 11.9836 16.9721V18.9351C11.9836 19.2969 12.2663 19.5894 12.6146 19.5894H15.1384V26.1326H7.25149C6.36927 26.1326 5.67411 25.4117 5.67411 24.4968V8.1388C5.67411 7.22392 6.36927 6.503 7.25149 6.503Z" fill="#FAA95E"/>
</svg>
