<svg width="32" height="33" viewBox="0 0 32 33" fill="none" xmlns="http://www.w3.org/2000/svg">
<path d="M7.8097 4.54004C5.8338 4.54004 4.21094 6.1629 4.21094 8.1388V24.4968C4.21094 26.4727 5.8338 28.0956 7.8097 28.0956H24.1677C26.1436 28.0956 27.7665 26.4727 27.7665 24.4968V8.1388C27.7665 6.1629 26.1436 4.54004 24.1677 4.54004H7.8097ZM7.8097 6.503H24.1677C25.0826 6.503 25.8035 7.22392 25.8035 8.1388V24.4968C25.8035 25.4117 25.0826 26.1326 24.1677 26.1326H7.8097C6.89481 26.1326 6.1739 25.4117 6.1739 24.4968V8.1388C6.1739 7.22392 6.89481 6.503 7.8097 6.503ZM10.427 9.12029C9.99314 9.12029 9.57707 9.29263 9.2703 9.5994C8.96353 9.90617 8.79118 10.3222 8.79118 10.7561C8.79118 11.1899 8.96353 11.606 9.2703 11.9128C9.57707 12.2195 9.99314 12.3919 10.427 12.3919C10.8608 12.3919 11.2769 12.2195 11.5837 11.9128C11.8904 11.606 12.0628 11.1899 12.0628 10.7561C12.0628 10.3222 11.8904 9.90617 11.5837 9.5994C11.2769 9.29263 10.8608 9.12029 10.427 9.12029ZM9.44551 13.7005C9.08367 13.7005 8.79118 13.993 8.79118 14.3549V22.861C8.79118 23.2229 9.08367 23.5153 9.44551 23.5153H11.4085C11.7703 23.5153 12.0628 23.2229 12.0628 22.861V14.3549C12.0628 13.993 11.7703 13.7005 11.4085 13.7005H9.44551ZM14.0258 13.7005C13.6639 13.7005 13.3714 13.993 13.3714 14.3549V22.861C13.3714 23.2229 13.6639 23.5153 14.0258 23.5153H15.9887C16.3506 23.5153 16.643 23.2229 16.643 22.861V17.9536C16.643 17.0513 17.3765 16.3178 18.2788 16.3178C19.1811 16.3178 19.9146 17.0513 19.9146 17.9536V22.861C19.9146 23.2229 20.2071 23.5153 20.569 23.5153H22.5319C22.8938 23.5153 23.1862 23.2229 23.1862 22.861V17.6265C23.1862 15.4613 21.4255 13.7005 19.2603 13.7005C18.254 13.7005 17.3386 14.084 16.643 14.7089V14.3549C16.643 13.993 16.3506 13.7005 15.9887 13.7005H14.0258Z" fill="#FAA95E"/>
</svg>
