<svg width="31" height="33" viewBox="0 0 31 33" fill="none" xmlns="http://www.w3.org/2000/svg">
<path d="M11.0997 3.8877C7.1035 3.8877 3.84375 7.26817 3.84375 11.4124V21.2272C3.84375 25.3709 7.10338 28.7519 11.0997 28.7519H20.564C24.5598 28.7519 27.8199 25.371 27.8199 21.2272V11.4124C27.8199 7.26805 24.5597 3.8877 20.564 3.8877H11.0997ZM11.0997 5.85066H20.564C23.5366 5.85066 25.9271 8.32909 25.9271 11.4124V21.2272C25.9271 24.3097 23.5364 26.7889 20.564 26.7889H11.0997C8.12652 26.7889 5.73661 24.3099 5.73661 21.2272V11.4124C5.73661 8.32897 8.12641 5.85066 11.0997 5.85066ZM22.1414 8.46794C21.4442 8.46794 20.8795 9.05356 20.8795 9.77658C20.8795 10.4996 21.4442 11.0852 22.1414 11.0852C22.8386 11.0852 23.4033 10.4996 23.4033 9.77658C23.4033 9.05356 22.8386 8.46794 22.1414 8.46794ZM15.8318 9.77658C12.3586 9.77658 9.52232 12.7179 9.52232 16.3198C9.52232 19.9217 12.3586 22.863 15.8318 22.863C19.3051 22.863 22.1414 19.9217 22.1414 16.3198C22.1414 12.7179 19.3051 9.77658 15.8318 9.77658ZM15.8318 11.7395C18.2819 11.7395 20.2485 13.7789 20.2485 16.3198C20.2485 18.8606 18.2819 20.9 15.8318 20.9C13.3817 20.9 11.4152 18.8606 11.4152 16.3198C11.4152 13.7789 13.3817 11.7395 15.8318 11.7395Z" fill="#FAA95E"/>
</svg>
