<svg width="33" height="33" viewBox="0 0 33 33" fill="none" xmlns="http://www.w3.org/2000/svg">
<path d="M21.913 4.54004C18.3591 4.54004 15.4749 7.41168 15.3979 10.9478C12.2557 10.5709 10.2096 9.39609 8.95439 8.23849C7.56244 6.95473 7.12179 5.81418 7.12179 5.81418C7.05745 5.65208 6.9511 5.51006 6.81367 5.40271C6.67623 5.29536 6.51268 5.22656 6.33983 5.20339C6.16699 5.18022 5.99109 5.20352 5.83024 5.27089C5.66939 5.33826 5.52939 5.44727 5.42464 5.5867C5.42464 5.5867 4.24635 7.15732 4.24635 9.44745C4.24635 10.7567 4.65975 11.7255 5.15243 12.5465C5.13428 12.538 5.01186 12.4954 5.01186 12.4954C4.85543 12.4173 4.68098 12.3824 4.50654 12.3943C4.3321 12.4062 4.16401 12.4645 4.01965 12.5631C3.87528 12.6618 3.75988 12.7972 3.68538 12.9553C3.61088 13.1135 3.57997 13.2887 3.59586 13.4628C3.59586 13.4628 3.97363 16.2241 6.5697 18.2424L6.29877 18.3102C6.15171 18.3469 6.01514 18.4172 5.89978 18.5155C5.78442 18.6138 5.6934 18.7375 5.63385 18.8769C5.57431 19.0163 5.54785 19.1676 5.55656 19.3189C5.56528 19.4703 5.60892 19.6175 5.68407 19.7492C5.68407 19.7492 6.12429 20.4938 7.04638 21.2776C7.5931 21.7423 8.39623 22.2219 9.3429 22.6655C8.18031 23.0903 6.44671 23.5153 3.91919 23.5153C3.73058 23.5153 3.54597 23.5696 3.38742 23.6718C3.22888 23.774 3.10312 23.9196 3.02519 24.0914C2.94727 24.2631 2.92048 24.4537 2.94803 24.6403C2.97557 24.8269 3.05629 25.0016 3.18052 25.1435C3.18052 25.1435 3.93053 25.9697 5.41314 26.6885C6.89575 27.4074 9.17959 28.0956 12.4254 28.0956C18.1308 28.0956 22.2301 25.3587 24.7885 21.8898C27.3468 18.4209 28.4562 14.264 28.4562 11.0832C28.4562 10.8814 28.4436 10.6824 28.4256 10.4852C29.807 9.15405 30.3254 8.15335 30.3502 8.1043C30.4745 7.855 30.4282 7.5556 30.2352 7.35669C30.0428 7.15712 29.7446 7.10092 29.4914 7.21739L29.3853 7.26595C29.2944 7.30783 29.2034 7.34997 29.1118 7.39119C29.3781 6.96654 29.5883 6.51273 29.7342 6.04293C29.8153 5.78382 29.7277 5.49989 29.5131 5.33238C29.2985 5.16487 29.0029 5.14694 28.7706 5.28893C27.9709 5.77498 27.2043 6.11524 26.4064 6.34326C25.2321 5.22935 23.6515 4.54004 21.913 4.54004ZM21.913 6.503C24.4539 6.503 26.4933 8.5424 26.4933 11.0832C26.4933 13.7914 25.4762 17.6499 23.2089 20.7243C20.9416 23.7986 17.5162 26.1326 12.4254 26.1326C9.96171 26.1326 8.32289 25.687 7.09495 25.2048C8.38123 25.0051 9.48874 24.7385 10.2848 24.4304C11.6652 23.896 12.41 23.2789 12.41 23.2789C12.5467 23.1617 12.6484 23.0091 12.7041 22.8379C12.7598 22.6667 12.7674 22.4834 12.726 22.3082C12.6846 22.133 12.5957 21.9725 12.4692 21.8444C12.3427 21.7163 12.1834 21.6254 12.0087 21.5818C10.2272 21.1364 9.08462 20.416 8.36781 19.8156L9.39146 19.56C9.5939 19.5095 9.77497 19.3958 9.90841 19.2354C10.0418 19.075 10.1207 18.8762 10.1335 18.668C10.1463 18.4597 10.0924 18.2528 9.9797 18.0772C9.86695 17.9017 9.70119 17.7666 9.50648 17.6916C7.38313 16.875 6.49148 15.72 6.03551 14.7523C6.59036 14.8672 7.10697 15.0092 7.84512 15.0092C8.06615 15.009 8.28066 14.9342 8.4539 14.7969C8.62715 14.6597 8.74899 14.468 8.79971 14.2528C8.85043 14.0377 8.82705 13.8117 8.73335 13.6115C8.63966 13.4113 8.48114 13.2486 8.28346 13.1497C8.28346 13.1497 6.20931 12.1956 6.20931 9.44745C6.20931 8.95405 6.34596 8.64155 6.44574 8.26788C6.78807 8.72792 7.07019 9.17171 7.62275 9.68131C9.30741 11.235 12.0919 12.8193 16.2989 13.0449C16.432 13.052 16.5652 13.0319 16.6903 12.9859C16.8154 12.9398 16.9298 12.8688 17.0265 12.7771C17.1233 12.6854 17.2003 12.5749 17.253 12.4524C17.3056 12.33 17.3328 12.198 17.3328 12.0647V11.0832C17.3328 8.5424 19.3722 6.503 21.913 6.503Z" fill="#FAA95E"/>
</svg>
