<svg width="31" height="33" viewBox="0 0 31 33" fill="none" xmlns="http://www.w3.org/2000/svg">
<path d="M15.4316 6.17676C11.4234 6.17676 7.69925 6.47292 5.57422 6.93332C5.56969 6.93456 5.56517 6.93584 5.56066 6.93715C3.95968 7.30919 2.45215 8.49844 2.13479 10.3608C2.13437 10.3634 2.13396 10.3659 2.13356 10.3685C1.88975 11.8695 1.64062 13.8262 1.64062 16.6459C1.64062 19.4602 1.8906 21.3651 2.19887 22.945C2.52401 24.7525 3.99674 25.9777 5.62228 26.3546C5.63006 26.3569 5.63786 26.359 5.64569 26.361C7.86353 26.8142 11.4825 27.115 15.4908 27.115C19.499 27.115 23.1199 26.8142 25.3383 26.361C25.3461 26.359 25.3539 26.3569 25.3617 26.3546C26.9627 25.9826 28.4702 24.7933 28.7876 22.931C28.7885 22.9263 28.7893 22.9216 28.7901 22.9169C29.0301 21.3853 29.3412 19.4304 29.4025 16.6063C29.4026 16.599 29.4026 16.5918 29.4025 16.5846C29.4025 13.7588 29.0907 11.79 28.7864 10.2305C28.4638 8.41916 26.9894 7.19061 25.3617 6.81319C25.3369 6.80745 25.3118 6.80276 25.2866 6.79913C23.1223 6.4836 19.4405 6.17676 15.4316 6.17676ZM15.4316 8.13972C19.3185 8.13972 22.9202 8.4416 24.9649 8.73653C25.9698 8.9761 26.7683 9.70397 26.9256 10.587C26.9263 10.5926 26.9271 10.5981 26.928 10.6036C27.2216 12.1063 27.5073 13.8929 27.5084 16.5705C27.4495 19.2566 27.1632 21.0591 26.9231 22.591C26.7591 23.5453 25.9903 24.1931 24.9563 24.4364C22.9701 24.8405 19.3969 25.1521 15.4908 25.1521C11.584 25.1521 8.01175 24.8393 6.02648 24.4351C5.01781 24.1975 4.21613 23.4675 4.05845 22.5821C4.05727 22.5765 4.05604 22.571 4.05476 22.5655C3.76443 21.0797 3.53348 19.3474 3.53348 16.6459C3.53348 13.9492 3.76405 12.1455 3.99807 10.7033C4.16113 9.74646 4.93195 9.09712 5.96856 8.85411C7.80772 8.45656 11.5213 8.13972 15.4316 8.13972ZM13.2886 11.0995C12.1576 11.1376 11.1049 12.0822 11.1049 13.3653V19.2734C11.1049 20.9842 12.9766 22.0937 14.41 21.2543V21.253L19.4515 18.2996C20.8953 17.4537 20.8953 15.1838 19.4515 14.3379L14.41 11.3845C14.0517 11.1746 13.6656 11.0868 13.2886 11.0995ZM13.296 13.0343C13.3529 13.0375 13.4149 13.056 13.4784 13.0931L18.5198 16.0478C18.7758 16.1978 18.7758 16.4409 18.5198 16.5909L13.4784 19.5443C13.2246 19.6929 12.9978 19.5543 12.9978 19.2734V13.3653C12.9978 13.2249 13.0546 13.1202 13.1432 13.0689C13.1875 13.0432 13.2391 13.0311 13.296 13.0343Z" fill="#FAA95E"/>
</svg>
